<?xml version="1.0" standalone="no"?>
 <!DOCTYPE svg PUBLIC "-//W3C//DTD SVG 1.1//EN" 
 "http://www.w3.org/Graphics/SVG/1.1/DTD/svg11.dtd"> 
<svg xmlns="http://www.w3.org/2000/svg" version="1.1" 
    width="6.35cm" height="3.048cm" viewBox="0 0 25000 12000 ">
<title>SVG Picture created as ALS3_LED_tester_boards-brd.svg date 2018/04/05 21:40:28 </title>
  <desc>Picture generated by PCBNEW </desc>
<g style="fill:#000000; fill-opacity:1;stroke:#000000; stroke-opacity:1;
stroke-linecap:round; stroke-linejoin:round; "
 transform="translate(0 0) scale(1 1)">
</g>
<g style="fill:#000000; fill-opacity:0.0; 
stroke:#000000; stroke-width:-0.000393701; stroke-opacity:1; 
stroke-linecap:round; stroke-linejoin:round;">
</g>
<g style="fill:#000000; fill-opacity:0.0; 
stroke:#000000; stroke-width:59.0551; stroke-opacity:1; 
stroke-linecap:round; stroke-linejoin:round;">
<path d="M3787 5212
L3492 4917
" />
<path d="M3590 6885
L2409 6885
" />
<path d="M3590 5114
L3590 6885
" />
<path d="M2409 5114
L3590 5114
" />
<path d="M2409 6885
L2409 5114
" />
<path d="M1862 5827
L1862 6082
L1847 6112
L1832 6127
L1802 6142
L1742 6142
L1712 6127
L1697 6112
L1682 6082
L1682 5827
" />
<path d="M1367 6142
L1547 6142
" />
<path d="M1457 6142
L1457 5827
L1487 5872
L1517 5902
L1547 5917
" />
</g>
<g style="fill:#000000; fill-opacity:1.0; 
stroke:#000000; stroke-width:0; stroke-opacity:1; 
stroke-linecap:round; stroke-linejoin:round;">
<circle cx="5950" cy="9500" r="1250" /> 
</g>
<g style="fill:#000000; fill-opacity:1.0; 
stroke:#000000; stroke-width:39.3701; stroke-opacity:1; 
stroke-linecap:round; stroke-linejoin:round;">
</g>
<g style="fill:#000000; fill-opacity:1.0; 
stroke:#000000; stroke-width:0; stroke-opacity:1; 
stroke-linecap:round; stroke-linejoin:round;">
<polyline style="fill-rule:evenodd;"
points="2547,6728
2547,6295
2862,6295
2862,6728
2547,6728
" /> 
<polyline style="fill-rule:evenodd;"
points="2547,5704
2547,5271
2862,5271
2862,5704
2547,5704
" /> 
<polyline style="fill-rule:evenodd;"
points="3137,6728
3137,6295
3452,6295
3452,6728
3137,6728
" /> 
<polyline style="fill-rule:evenodd;"
points="3137,5704
3137,5271
3452,5271
3452,5704
3137,5704
" /> 
<polyline style="fill-rule:evenodd;"
points="1425,5704
1425,4425
2862,4425
2862,5704
1425,5704
" /> 
<polyline style="fill-rule:evenodd;"
points="3137,5704
3137,4425
4574,4425
4574,5704
3137,5704
" /> 
<polyline style="fill-rule:evenodd;"
points="3137,7574
3137,6295
4574,6295
4574,7574
3137,7574
" /> 
<polyline style="fill-rule:evenodd;"
points="1425,7574
1425,6295
2862,6295
2862,7574
1425,7574
" /> 
<circle cx="5950" cy="2500" r="1250" /> 
</g>
<g style="fill:#000000; fill-opacity:1.0; 
stroke:#000000; stroke-width:39.3701; stroke-opacity:1; 
stroke-linecap:round; stroke-linejoin:round;">
</g>
<g style="fill:#000000; fill-opacity:1.0; 
stroke:#000000; stroke-width:594.488; stroke-opacity:1; 
stroke-linecap:round; stroke-linejoin:round;">
</g>
<g style="fill:#000000; fill-opacity:0.0; 
stroke:#000000; stroke-width:594.488; stroke-opacity:1; 
stroke-linecap:round; stroke-linejoin:round;">
<path d="M13000 3295
L13000 2704
" />
<path d="M12000 3295
L12000 2704
" />
<path d="M13000 5295
L13000 4704
" />
<path d="M12000 5295
L12000 4704
" />
<path d="M13000 7295
L13000 6704
" />
<path d="M12000 7295
L12000 6704
" />
<path d="M13000 9295
L13000 8704
" />
<path d="M12000 9295
L12000 8704
" />
</g>
<g style="fill:#000000; fill-opacity:1.0; 
stroke:#000000; stroke-width:0; stroke-opacity:1; 
stroke-linecap:round; stroke-linejoin:round;">
<circle cx="21000" cy="4000" r="340" /> 
</g>
<g style="fill:#000000; fill-opacity:1.0; 
stroke:#000000; stroke-width:39.3701; stroke-opacity:1; 
stroke-linecap:round; stroke-linejoin:round;">
</g>
<g style="fill:#000000; fill-opacity:1.0; 
stroke:#000000; stroke-width:0; stroke-opacity:1; 
stroke-linecap:round; stroke-linejoin:round;">
<polyline style="fill-rule:evenodd;"
points="21660,3660
22340,3660
22340,4340
21660,4340
21660,3660
" /> 
</g>
<g style="fill:#000000; fill-opacity:1.0; 
stroke:#000000; stroke-width:680; stroke-opacity:1; 
stroke-linecap:round; stroke-linejoin:round;">
</g>
<g style="fill:#000000; fill-opacity:0.0; 
stroke:#000000; stroke-width:680; stroke-opacity:1; 
stroke-linecap:round; stroke-linejoin:round;">
<path d="M21000 5000
L21000 5000
" />
</g>
<g style="fill:#000000; fill-opacity:0.0; 
stroke:#000000; stroke-width:0; stroke-opacity:1; 
stroke-linecap:round; stroke-linejoin:round;">
</g>
<g style="fill:#000000; fill-opacity:1.0; 
stroke:#000000; stroke-width:0; stroke-opacity:1; 
stroke-linecap:round; stroke-linejoin:round;">
<polyline style="fill-rule:evenodd;"
points="21660,4660
22340,4660
22340,5340
21660,5340
21660,4660
" /> 
</g>
<g style="fill:#000000; fill-opacity:1.0; 
stroke:#000000; stroke-width:680; stroke-opacity:1; 
stroke-linecap:round; stroke-linejoin:round;">
</g>
<g style="fill:#000000; fill-opacity:0.0; 
stroke:#000000; stroke-width:680; stroke-opacity:1; 
stroke-linecap:round; stroke-linejoin:round;">
<path d="M21000 6000
L21000 6000
" />
</g>
<g style="fill:#000000; fill-opacity:0.0; 
stroke:#000000; stroke-width:0; stroke-opacity:1; 
stroke-linecap:round; stroke-linejoin:round;">
</g>
<g style="fill:#000000; fill-opacity:1.0; 
stroke:#000000; stroke-width:0; stroke-opacity:1; 
stroke-linecap:round; stroke-linejoin:round;">
<polyline style="fill-rule:evenodd;"
points="21660,5660
22340,5660
22340,6340
21660,6340
21660,5660
" /> 
</g>
<g style="fill:#000000; fill-opacity:1.0; 
stroke:#000000; stroke-width:680; stroke-opacity:1; 
stroke-linecap:round; stroke-linejoin:round;">
</g>
<g style="fill:#000000; fill-opacity:0.0; 
stroke:#000000; stroke-width:680; stroke-opacity:1; 
stroke-linecap:round; stroke-linejoin:round;">
<path d="M21000 7000
L21000 7000
" />
</g>
<g style="fill:#000000; fill-opacity:0.0; 
stroke:#000000; stroke-width:0; stroke-opacity:1; 
stroke-linecap:round; stroke-linejoin:round;">
</g>
<g style="fill:#000000; fill-opacity:1.0; 
stroke:#000000; stroke-width:0; stroke-opacity:1; 
stroke-linecap:round; stroke-linejoin:round;">
<polyline style="fill-rule:evenodd;"
points="21660,6660
22340,6660
22340,7340
21660,7340
21660,6660
" /> 
<polyline style="fill-rule:evenodd;"
points="20660,7660
21340,7660
21340,8340
20660,8340
20660,7660
" /> 
<polyline style="fill-rule:evenodd;"
points="21660,7660
22340,7660
22340,8340
21660,8340
21660,7660
" /> 
</g>
<g style="fill:#000000; fill-opacity:1.0; 
stroke:#000000; stroke-width:594.488; stroke-opacity:1; 
stroke-linecap:round; stroke-linejoin:round;">
</g>
<g style="fill:#000000; fill-opacity:0.0; 
stroke:#000000; stroke-width:594.488; stroke-opacity:1; 
stroke-linecap:round; stroke-linejoin:round;">
<path d="M18204 3000
L18795 3000
" />
<path d="M18204 2000
L18795 2000
" />
</g>
<g style="fill:#000000; fill-opacity:1.0; 
stroke:#000000; stroke-width:0; stroke-opacity:1; 
stroke-linecap:round; stroke-linejoin:round;">
<circle cx="5500" cy="7000" r="118.11" /> 
</g>
<g style="fill:#000000; fill-opacity:1.0; 
stroke:#000000; stroke-width:39.3701; stroke-opacity:1; 
stroke-linecap:round; stroke-linejoin:round;">
</g>
<g style="fill:#000000; fill-opacity:1.0; 
stroke:#000000; stroke-width:300; stroke-opacity:1; 
stroke-linecap:round; stroke-linejoin:round;">
</g>
<g style="fill:#000000; fill-opacity:0.0; 
stroke:#000000; stroke-width:300; stroke-opacity:1; 
stroke-linecap:round; stroke-linejoin:round;">
<path d="M2143 6935
L2143 5064
" />
<path d="M3856 6935
L2143 6935
" />
<path d="M5500 7000
L3921 7000
" />
<path d="M3921 7000
L3856 6935
" />
</g>
<g style="fill:#FFFFFF; fill-opacity:0.0; 
stroke:#FFFFFF; stroke-width:300; stroke-opacity:1; 
stroke-linecap:round; stroke-linejoin:round;">
</g>
<g style="fill:#FFFFFF; fill-opacity:1.0; 
stroke:#FFFFFF; stroke-width:0; stroke-opacity:1; 
stroke-linecap:round; stroke-linejoin:round;">
<circle cx="5500" cy="7000" r="78.7402" /> 
</g>
<g style="fill:#FFFFFF; fill-opacity:1.0; 
stroke:#FFFFFF; stroke-width:39.3701; stroke-opacity:1; 
stroke-linecap:round; stroke-linejoin:round;">
</g>
<g style="fill:#FFFFFF; fill-opacity:1.0; 
stroke:#FFFFFF; stroke-width:0; stroke-opacity:1; 
stroke-linecap:round; stroke-linejoin:round;">
<circle cx="5950" cy="9500" r="700" /> 
</g>
<g style="fill:#FFFFFF; fill-opacity:1.0; 
stroke:#FFFFFF; stroke-width:39.3701; stroke-opacity:1; 
stroke-linecap:round; stroke-linejoin:round;">
</g>
<g style="fill:#FFFFFF; fill-opacity:1.0; 
stroke:#FFFFFF; stroke-width:0; stroke-opacity:1; 
stroke-linecap:round; stroke-linejoin:round;">
<circle cx="5950" cy="2500" r="700" /> 
</g>
<g style="fill:#FFFFFF; fill-opacity:1.0; 
stroke:#FFFFFF; stroke-width:39.3701; stroke-opacity:1; 
stroke-linecap:round; stroke-linejoin:round;">
</g>
<g style="fill:#FFFFFF; fill-opacity:1.0; 
stroke:#FFFFFF; stroke-width:0; stroke-opacity:1; 
stroke-linecap:round; stroke-linejoin:round;">
<circle cx="13000" cy="3000" r="196.85" /> 
</g>
<g style="fill:#FFFFFF; fill-opacity:1.0; 
stroke:#FFFFFF; stroke-width:39.3701; stroke-opacity:1; 
stroke-linecap:round; stroke-linejoin:round;">
</g>
<g style="fill:#FFFFFF; fill-opacity:1.0; 
stroke:#FFFFFF; stroke-width:0; stroke-opacity:1; 
stroke-linecap:round; stroke-linejoin:round;">
<circle cx="12000" cy="3000" r="196.85" /> 
</g>
<g style="fill:#FFFFFF; fill-opacity:1.0; 
stroke:#FFFFFF; stroke-width:39.3701; stroke-opacity:1; 
stroke-linecap:round; stroke-linejoin:round;">
</g>
<g style="fill:#FFFFFF; fill-opacity:1.0; 
stroke:#FFFFFF; stroke-width:0; stroke-opacity:1; 
stroke-linecap:round; stroke-linejoin:round;">
<circle cx="13000" cy="5000" r="196.85" /> 
</g>
<g style="fill:#FFFFFF; fill-opacity:1.0; 
stroke:#FFFFFF; stroke-width:39.3701; stroke-opacity:1; 
stroke-linecap:round; stroke-linejoin:round;">
</g>
<g style="fill:#FFFFFF; fill-opacity:1.0; 
stroke:#FFFFFF; stroke-width:0; stroke-opacity:1; 
stroke-linecap:round; stroke-linejoin:round;">
<circle cx="12000" cy="5000" r="196.85" /> 
</g>
<g style="fill:#FFFFFF; fill-opacity:1.0; 
stroke:#FFFFFF; stroke-width:39.3701; stroke-opacity:1; 
stroke-linecap:round; stroke-linejoin:round;">
</g>
<g style="fill:#FFFFFF; fill-opacity:1.0; 
stroke:#FFFFFF; stroke-width:0; stroke-opacity:1; 
stroke-linecap:round; stroke-linejoin:round;">
<circle cx="13000" cy="7000" r="196.85" /> 
</g>
<g style="fill:#FFFFFF; fill-opacity:1.0; 
stroke:#FFFFFF; stroke-width:39.3701; stroke-opacity:1; 
stroke-linecap:round; stroke-linejoin:round;">
</g>
<g style="fill:#FFFFFF; fill-opacity:1.0; 
stroke:#FFFFFF; stroke-width:0; stroke-opacity:1; 
stroke-linecap:round; stroke-linejoin:round;">
<circle cx="12000" cy="7000" r="196.85" /> 
</g>
<g style="fill:#FFFFFF; fill-opacity:1.0; 
stroke:#FFFFFF; stroke-width:39.3701; stroke-opacity:1; 
stroke-linecap:round; stroke-linejoin:round;">
</g>
<g style="fill:#FFFFFF; fill-opacity:1.0; 
stroke:#FFFFFF; stroke-width:0; stroke-opacity:1; 
stroke-linecap:round; stroke-linejoin:round;">
<circle cx="13000" cy="9000" r="196.85" /> 
</g>
<g style="fill:#FFFFFF; fill-opacity:1.0; 
stroke:#FFFFFF; stroke-width:39.3701; stroke-opacity:1; 
stroke-linecap:round; stroke-linejoin:round;">
</g>
<g style="fill:#FFFFFF; fill-opacity:1.0; 
stroke:#FFFFFF; stroke-width:0; stroke-opacity:1; 
stroke-linecap:round; stroke-linejoin:round;">
<circle cx="12000" cy="9000" r="196.85" /> 
</g>
<g style="fill:#FFFFFF; fill-opacity:1.0; 
stroke:#FFFFFF; stroke-width:39.3701; stroke-opacity:1; 
stroke-linecap:round; stroke-linejoin:round;">
</g>
<g style="fill:#FFFFFF; fill-opacity:1.0; 
stroke:#FFFFFF; stroke-width:0; stroke-opacity:1; 
stroke-linecap:round; stroke-linejoin:round;">
<circle cx="21000" cy="4000" r="200" /> 
</g>
<g style="fill:#FFFFFF; fill-opacity:1.0; 
stroke:#FFFFFF; stroke-width:39.3701; stroke-opacity:1; 
stroke-linecap:round; stroke-linejoin:round;">
</g>
<g style="fill:#FFFFFF; fill-opacity:1.0; 
stroke:#FFFFFF; stroke-width:0; stroke-opacity:1; 
stroke-linecap:round; stroke-linejoin:round;">
<circle cx="22000" cy="4000" r="200" /> 
</g>
<g style="fill:#FFFFFF; fill-opacity:1.0; 
stroke:#FFFFFF; stroke-width:39.3701; stroke-opacity:1; 
stroke-linecap:round; stroke-linejoin:round;">
</g>
<g style="fill:#FFFFFF; fill-opacity:1.0; 
stroke:#FFFFFF; stroke-width:0; stroke-opacity:1; 
stroke-linecap:round; stroke-linejoin:round;">
<circle cx="21000" cy="5000" r="200" /> 
</g>
<g style="fill:#FFFFFF; fill-opacity:1.0; 
stroke:#FFFFFF; stroke-width:39.3701; stroke-opacity:1; 
stroke-linecap:round; stroke-linejoin:round;">
</g>
<g style="fill:#FFFFFF; fill-opacity:1.0; 
stroke:#FFFFFF; stroke-width:0; stroke-opacity:1; 
stroke-linecap:round; stroke-linejoin:round;">
<circle cx="22000" cy="5000" r="200" /> 
</g>
<g style="fill:#FFFFFF; fill-opacity:1.0; 
stroke:#FFFFFF; stroke-width:39.3701; stroke-opacity:1; 
stroke-linecap:round; stroke-linejoin:round;">
</g>
<g style="fill:#FFFFFF; fill-opacity:1.0; 
stroke:#FFFFFF; stroke-width:0; stroke-opacity:1; 
stroke-linecap:round; stroke-linejoin:round;">
<circle cx="21000" cy="6000" r="200" /> 
</g>
<g style="fill:#FFFFFF; fill-opacity:1.0; 
stroke:#FFFFFF; stroke-width:39.3701; stroke-opacity:1; 
stroke-linecap:round; stroke-linejoin:round;">
</g>
<g style="fill:#FFFFFF; fill-opacity:1.0; 
stroke:#FFFFFF; stroke-width:0; stroke-opacity:1; 
stroke-linecap:round; stroke-linejoin:round;">
<circle cx="22000" cy="6000" r="200" /> 
</g>
<g style="fill:#FFFFFF; fill-opacity:1.0; 
stroke:#FFFFFF; stroke-width:39.3701; stroke-opacity:1; 
stroke-linecap:round; stroke-linejoin:round;">
</g>
<g style="fill:#FFFFFF; fill-opacity:1.0; 
stroke:#FFFFFF; stroke-width:0; stroke-opacity:1; 
stroke-linecap:round; stroke-linejoin:round;">
<circle cx="21000" cy="7000" r="200" /> 
</g>
<g style="fill:#FFFFFF; fill-opacity:1.0; 
stroke:#FFFFFF; stroke-width:39.3701; stroke-opacity:1; 
stroke-linecap:round; stroke-linejoin:round;">
</g>
<g style="fill:#FFFFFF; fill-opacity:1.0; 
stroke:#FFFFFF; stroke-width:0; stroke-opacity:1; 
stroke-linecap:round; stroke-linejoin:round;">
<circle cx="22000" cy="7000" r="200" /> 
</g>
<g style="fill:#FFFFFF; fill-opacity:1.0; 
stroke:#FFFFFF; stroke-width:39.3701; stroke-opacity:1; 
stroke-linecap:round; stroke-linejoin:round;">
</g>
<g style="fill:#FFFFFF; fill-opacity:1.0; 
stroke:#FFFFFF; stroke-width:0; stroke-opacity:1; 
stroke-linecap:round; stroke-linejoin:round;">
<circle cx="21000" cy="8000" r="200" /> 
</g>
<g style="fill:#FFFFFF; fill-opacity:1.0; 
stroke:#FFFFFF; stroke-width:39.3701; stroke-opacity:1; 
stroke-linecap:round; stroke-linejoin:round;">
</g>
<g style="fill:#FFFFFF; fill-opacity:1.0; 
stroke:#FFFFFF; stroke-width:0; stroke-opacity:1; 
stroke-linecap:round; stroke-linejoin:round;">
<circle cx="22000" cy="8000" r="200" /> 
</g>
<g style="fill:#FFFFFF; fill-opacity:1.0; 
stroke:#FFFFFF; stroke-width:39.3701; stroke-opacity:1; 
stroke-linecap:round; stroke-linejoin:round;">
</g>
<g style="fill:#FFFFFF; fill-opacity:1.0; 
stroke:#FFFFFF; stroke-width:0; stroke-opacity:1; 
stroke-linecap:round; stroke-linejoin:round;">
<circle cx="18500" cy="3000" r="196.85" /> 
</g>
<g style="fill:#FFFFFF; fill-opacity:1.0; 
stroke:#FFFFFF; stroke-width:39.3701; stroke-opacity:1; 
stroke-linecap:round; stroke-linejoin:round;">
</g>
<g style="fill:#FFFFFF; fill-opacity:1.0; 
stroke:#FFFFFF; stroke-width:0; stroke-opacity:1; 
stroke-linecap:round; stroke-linejoin:round;">
<circle cx="18500" cy="2000" r="196.85" /> 
</g>
<g style="fill:#FFFFFF; fill-opacity:1.0; 
stroke:#FFFFFF; stroke-width:39.3701; stroke-opacity:1; 
stroke-linecap:round; stroke-linejoin:round;">
</g>
<g style="fill:#000000; fill-opacity:1.0; 
stroke:#000000; stroke-width:39.3701; stroke-opacity:1; 
stroke-linecap:round; stroke-linejoin:round;">
</g>
<g style="fill:#000000; fill-opacity:1.0; 
stroke:#000000; stroke-width:0; stroke-opacity:1; 
stroke-linecap:round; stroke-linejoin:round;">
<circle cx="5950" cy="9500" r="1250" /> 
</g>
<g style="fill:#000000; fill-opacity:1.0; 
stroke:#000000; stroke-width:39.3701; stroke-opacity:1; 
stroke-linecap:round; stroke-linejoin:round;">
</g>
<g style="fill:#000000; fill-opacity:1.0; 
stroke:#000000; stroke-width:0; stroke-opacity:1; 
stroke-linecap:round; stroke-linejoin:round;">
<polyline style="fill-rule:evenodd;"
points="7173,6255
7173,5744
7763,5744
7763,6255
7173,6255
" /> 
<polyline style="fill-rule:evenodd;"
points="8236,6255
8236,5744
8826,5744
8826,6255
8236,6255
" /> 
<circle cx="5950" cy="2500" r="1250" /> 
</g>
<g style="fill:#000000; fill-opacity:1.0; 
stroke:#000000; stroke-width:39.3701; stroke-opacity:1; 
stroke-linecap:round; stroke-linejoin:round;">
</g>
<g style="fill:#000000; fill-opacity:1.0; 
stroke:#000000; stroke-width:594.488; stroke-opacity:1; 
stroke-linecap:round; stroke-linejoin:round;">
</g>
<g style="fill:#000000; fill-opacity:0.0; 
stroke:#000000; stroke-width:594.488; stroke-opacity:1; 
stroke-linecap:round; stroke-linejoin:round;">
<path d="M13000 3295
L13000 2704
" />
<path d="M12000 3295
L12000 2704
" />
<path d="M13000 5295
L13000 4704
" />
<path d="M12000 5295
L12000 4704
" />
<path d="M13000 7295
L13000 6704
" />
<path d="M12000 7295
L12000 6704
" />
<path d="M13000 9295
L13000 8704
" />
<path d="M12000 9295
L12000 8704
" />
</g>
<g style="fill:#000000; fill-opacity:1.0; 
stroke:#000000; stroke-width:0; stroke-opacity:1; 
stroke-linecap:round; stroke-linejoin:round;">
<circle cx="21000" cy="4000" r="340" /> 
</g>
<g style="fill:#000000; fill-opacity:1.0; 
stroke:#000000; stroke-width:39.3701; stroke-opacity:1; 
stroke-linecap:round; stroke-linejoin:round;">
</g>
<g style="fill:#000000; fill-opacity:1.0; 
stroke:#000000; stroke-width:0; stroke-opacity:1; 
stroke-linecap:round; stroke-linejoin:round;">
<polyline style="fill-rule:evenodd;"
points="21660,3660
22340,3660
22340,4340
21660,4340
21660,3660
" /> 
</g>
<g style="fill:#000000; fill-opacity:1.0; 
stroke:#000000; stroke-width:680; stroke-opacity:1; 
stroke-linecap:round; stroke-linejoin:round;">
</g>
<g style="fill:#000000; fill-opacity:0.0; 
stroke:#000000; stroke-width:680; stroke-opacity:1; 
stroke-linecap:round; stroke-linejoin:round;">
<path d="M21000 5000
L21000 5000
" />
</g>
<g style="fill:#000000; fill-opacity:0.0; 
stroke:#000000; stroke-width:0; stroke-opacity:1; 
stroke-linecap:round; stroke-linejoin:round;">
</g>
<g style="fill:#000000; fill-opacity:1.0; 
stroke:#000000; stroke-width:0; stroke-opacity:1; 
stroke-linecap:round; stroke-linejoin:round;">
<polyline style="fill-rule:evenodd;"
points="21660,4660
22340,4660
22340,5340
21660,5340
21660,4660
" /> 
</g>
<g style="fill:#000000; fill-opacity:1.0; 
stroke:#000000; stroke-width:680; stroke-opacity:1; 
stroke-linecap:round; stroke-linejoin:round;">
</g>
<g style="fill:#000000; fill-opacity:0.0; 
stroke:#000000; stroke-width:680; stroke-opacity:1; 
stroke-linecap:round; stroke-linejoin:round;">
<path d="M21000 6000
L21000 6000
" />
</g>
<g style="fill:#000000; fill-opacity:0.0; 
stroke:#000000; stroke-width:0; stroke-opacity:1; 
stroke-linecap:round; stroke-linejoin:round;">
</g>
<g style="fill:#000000; fill-opacity:1.0; 
stroke:#000000; stroke-width:0; stroke-opacity:1; 
stroke-linecap:round; stroke-linejoin:round;">
<polyline style="fill-rule:evenodd;"
points="21660,5660
22340,5660
22340,6340
21660,6340
21660,5660
" /> 
</g>
<g style="fill:#000000; fill-opacity:1.0; 
stroke:#000000; stroke-width:680; stroke-opacity:1; 
stroke-linecap:round; stroke-linejoin:round;">
</g>
<g style="fill:#000000; fill-opacity:0.0; 
stroke:#000000; stroke-width:680; stroke-opacity:1; 
stroke-linecap:round; stroke-linejoin:round;">
<path d="M21000 7000
L21000 7000
" />
</g>
<g style="fill:#000000; fill-opacity:0.0; 
stroke:#000000; stroke-width:0; stroke-opacity:1; 
stroke-linecap:round; stroke-linejoin:round;">
</g>
<g style="fill:#000000; fill-opacity:1.0; 
stroke:#000000; stroke-width:0; stroke-opacity:1; 
stroke-linecap:round; stroke-linejoin:round;">
<polyline style="fill-rule:evenodd;"
points="21660,6660
22340,6660
22340,7340
21660,7340
21660,6660
" /> 
<polyline style="fill-rule:evenodd;"
points="20660,7660
21340,7660
21340,8340
20660,8340
20660,7660
" /> 
<polyline style="fill-rule:evenodd;"
points="21660,7660
22340,7660
22340,8340
21660,8340
21660,7660
" /> 
</g>
<g style="fill:#000000; fill-opacity:1.0; 
stroke:#000000; stroke-width:594.488; stroke-opacity:1; 
stroke-linecap:round; stroke-linejoin:round;">
</g>
<g style="fill:#000000; fill-opacity:0.0; 
stroke:#000000; stroke-width:594.488; stroke-opacity:1; 
stroke-linecap:round; stroke-linejoin:round;">
<path d="M18204 3000
L18795 3000
" />
<path d="M18204 2000
L18795 2000
" />
</g>
<g style="fill:#000000; fill-opacity:1.0; 
stroke:#000000; stroke-width:0; stroke-opacity:1; 
stroke-linecap:round; stroke-linejoin:round;">
<circle cx="5500" cy="7000" r="118.11" /> 
</g>
<g style="fill:#000000; fill-opacity:1.0; 
stroke:#000000; stroke-width:39.3701; stroke-opacity:1; 
stroke-linecap:round; stroke-linejoin:round;">
</g>
<g style="fill:#000000; fill-opacity:1.0; 
stroke:#000000; stroke-width:300; stroke-opacity:1; 
stroke-linecap:round; stroke-linejoin:round;">
</g>
<g style="fill:#000000; fill-opacity:0.0; 
stroke:#000000; stroke-width:300; stroke-opacity:1; 
stroke-linecap:round; stroke-linejoin:round;">
<path d="M17500 4000
L16500 3000
" />
<path d="M16500 3000
L13000 3000
" />
<path d="M21000 4000
L17500 4000
" />
<path d="M21000 5000
L13000 5000
" />
<path d="M16500 7000
L13000 7000
" />
<path d="M17500 6000
L16500 7000
" />
<path d="M21000 6000
L17500 6000
" />
<path d="M16000 9000
L13000 9000
" />
<path d="M18000 7000
L16000 9000
" />
<path d="M21000 7000
L18000 7000
" />
<path d="M7024 7000
L5500 7000
" />
<path d="M7468 6000
L7468 6555
" />
<path d="M7468 6555
L7024 7000
" />
<path d="M12000 6000
L12000 7000
" />
<path d="M12000 6000
L8531 6000
" />
<path d="M12000 5000
L12000 6000
" />
<path d="M12000 7000
L12000 9000
" />
<path d="M12000 3000
L12000 5000
" />
</g>
<g style="fill:#FFFFFF; fill-opacity:0.0; 
stroke:#FFFFFF; stroke-width:300; stroke-opacity:1; 
stroke-linecap:round; stroke-linejoin:round;">
</g>
<g style="fill:#FFFFFF; fill-opacity:1.0; 
stroke:#FFFFFF; stroke-width:0; stroke-opacity:1; 
stroke-linecap:round; stroke-linejoin:round;">
<circle cx="5500" cy="7000" r="78.7402" /> 
</g>
<g style="fill:#FFFFFF; fill-opacity:1.0; 
stroke:#FFFFFF; stroke-width:39.3701; stroke-opacity:1; 
stroke-linecap:round; stroke-linejoin:round;">
</g>
<g style="fill:#FFFFFF; fill-opacity:1.0; 
stroke:#FFFFFF; stroke-width:0; stroke-opacity:1; 
stroke-linecap:round; stroke-linejoin:round;">
<circle cx="5950" cy="9500" r="700" /> 
</g>
<g style="fill:#FFFFFF; fill-opacity:1.0; 
stroke:#FFFFFF; stroke-width:39.3701; stroke-opacity:1; 
stroke-linecap:round; stroke-linejoin:round;">
</g>
<g style="fill:#FFFFFF; fill-opacity:1.0; 
stroke:#FFFFFF; stroke-width:0; stroke-opacity:1; 
stroke-linecap:round; stroke-linejoin:round;">
<circle cx="5950" cy="2500" r="700" /> 
</g>
<g style="fill:#FFFFFF; fill-opacity:1.0; 
stroke:#FFFFFF; stroke-width:39.3701; stroke-opacity:1; 
stroke-linecap:round; stroke-linejoin:round;">
</g>
<g style="fill:#FFFFFF; fill-opacity:1.0; 
stroke:#FFFFFF; stroke-width:0; stroke-opacity:1; 
stroke-linecap:round; stroke-linejoin:round;">
<circle cx="13000" cy="3000" r="196.85" /> 
</g>
<g style="fill:#FFFFFF; fill-opacity:1.0; 
stroke:#FFFFFF; stroke-width:39.3701; stroke-opacity:1; 
stroke-linecap:round; stroke-linejoin:round;">
</g>
<g style="fill:#FFFFFF; fill-opacity:1.0; 
stroke:#FFFFFF; stroke-width:0; stroke-opacity:1; 
stroke-linecap:round; stroke-linejoin:round;">
<circle cx="12000" cy="3000" r="196.85" /> 
</g>
<g style="fill:#FFFFFF; fill-opacity:1.0; 
stroke:#FFFFFF; stroke-width:39.3701; stroke-opacity:1; 
stroke-linecap:round; stroke-linejoin:round;">
</g>
<g style="fill:#FFFFFF; fill-opacity:1.0; 
stroke:#FFFFFF; stroke-width:0; stroke-opacity:1; 
stroke-linecap:round; stroke-linejoin:round;">
<circle cx="13000" cy="5000" r="196.85" /> 
</g>
<g style="fill:#FFFFFF; fill-opacity:1.0; 
stroke:#FFFFFF; stroke-width:39.3701; stroke-opacity:1; 
stroke-linecap:round; stroke-linejoin:round;">
</g>
<g style="fill:#FFFFFF; fill-opacity:1.0; 
stroke:#FFFFFF; stroke-width:0; stroke-opacity:1; 
stroke-linecap:round; stroke-linejoin:round;">
<circle cx="12000" cy="5000" r="196.85" /> 
</g>
<g style="fill:#FFFFFF; fill-opacity:1.0; 
stroke:#FFFFFF; stroke-width:39.3701; stroke-opacity:1; 
stroke-linecap:round; stroke-linejoin:round;">
</g>
<g style="fill:#FFFFFF; fill-opacity:1.0; 
stroke:#FFFFFF; stroke-width:0; stroke-opacity:1; 
stroke-linecap:round; stroke-linejoin:round;">
<circle cx="13000" cy="7000" r="196.85" /> 
</g>
<g style="fill:#FFFFFF; fill-opacity:1.0; 
stroke:#FFFFFF; stroke-width:39.3701; stroke-opacity:1; 
stroke-linecap:round; stroke-linejoin:round;">
</g>
<g style="fill:#FFFFFF; fill-opacity:1.0; 
stroke:#FFFFFF; stroke-width:0; stroke-opacity:1; 
stroke-linecap:round; stroke-linejoin:round;">
<circle cx="12000" cy="7000" r="196.85" /> 
</g>
<g style="fill:#FFFFFF; fill-opacity:1.0; 
stroke:#FFFFFF; stroke-width:39.3701; stroke-opacity:1; 
stroke-linecap:round; stroke-linejoin:round;">
</g>
<g style="fill:#FFFFFF; fill-opacity:1.0; 
stroke:#FFFFFF; stroke-width:0; stroke-opacity:1; 
stroke-linecap:round; stroke-linejoin:round;">
<circle cx="13000" cy="9000" r="196.85" /> 
</g>
<g style="fill:#FFFFFF; fill-opacity:1.0; 
stroke:#FFFFFF; stroke-width:39.3701; stroke-opacity:1; 
stroke-linecap:round; stroke-linejoin:round;">
</g>
<g style="fill:#FFFFFF; fill-opacity:1.0; 
stroke:#FFFFFF; stroke-width:0; stroke-opacity:1; 
stroke-linecap:round; stroke-linejoin:round;">
<circle cx="12000" cy="9000" r="196.85" /> 
</g>
<g style="fill:#FFFFFF; fill-opacity:1.0; 
stroke:#FFFFFF; stroke-width:39.3701; stroke-opacity:1; 
stroke-linecap:round; stroke-linejoin:round;">
</g>
<g style="fill:#FFFFFF; fill-opacity:1.0; 
stroke:#FFFFFF; stroke-width:0; stroke-opacity:1; 
stroke-linecap:round; stroke-linejoin:round;">
<circle cx="21000" cy="4000" r="200" /> 
</g>
<g style="fill:#FFFFFF; fill-opacity:1.0; 
stroke:#FFFFFF; stroke-width:39.3701; stroke-opacity:1; 
stroke-linecap:round; stroke-linejoin:round;">
</g>
<g style="fill:#FFFFFF; fill-opacity:1.0; 
stroke:#FFFFFF; stroke-width:0; stroke-opacity:1; 
stroke-linecap:round; stroke-linejoin:round;">
<circle cx="22000" cy="4000" r="200" /> 
</g>
<g style="fill:#FFFFFF; fill-opacity:1.0; 
stroke:#FFFFFF; stroke-width:39.3701; stroke-opacity:1; 
stroke-linecap:round; stroke-linejoin:round;">
</g>
<g style="fill:#FFFFFF; fill-opacity:1.0; 
stroke:#FFFFFF; stroke-width:0; stroke-opacity:1; 
stroke-linecap:round; stroke-linejoin:round;">
<circle cx="21000" cy="5000" r="200" /> 
</g>
<g style="fill:#FFFFFF; fill-opacity:1.0; 
stroke:#FFFFFF; stroke-width:39.3701; stroke-opacity:1; 
stroke-linecap:round; stroke-linejoin:round;">
</g>
<g style="fill:#FFFFFF; fill-opacity:1.0; 
stroke:#FFFFFF; stroke-width:0; stroke-opacity:1; 
stroke-linecap:round; stroke-linejoin:round;">
<circle cx="22000" cy="5000" r="200" /> 
</g>
<g style="fill:#FFFFFF; fill-opacity:1.0; 
stroke:#FFFFFF; stroke-width:39.3701; stroke-opacity:1; 
stroke-linecap:round; stroke-linejoin:round;">
</g>
<g style="fill:#FFFFFF; fill-opacity:1.0; 
stroke:#FFFFFF; stroke-width:0; stroke-opacity:1; 
stroke-linecap:round; stroke-linejoin:round;">
<circle cx="21000" cy="6000" r="200" /> 
</g>
<g style="fill:#FFFFFF; fill-opacity:1.0; 
stroke:#FFFFFF; stroke-width:39.3701; stroke-opacity:1; 
stroke-linecap:round; stroke-linejoin:round;">
</g>
<g style="fill:#FFFFFF; fill-opacity:1.0; 
stroke:#FFFFFF; stroke-width:0; stroke-opacity:1; 
stroke-linecap:round; stroke-linejoin:round;">
<circle cx="22000" cy="6000" r="200" /> 
</g>
<g style="fill:#FFFFFF; fill-opacity:1.0; 
stroke:#FFFFFF; stroke-width:39.3701; stroke-opacity:1; 
stroke-linecap:round; stroke-linejoin:round;">
</g>
<g style="fill:#FFFFFF; fill-opacity:1.0; 
stroke:#FFFFFF; stroke-width:0; stroke-opacity:1; 
stroke-linecap:round; stroke-linejoin:round;">
<circle cx="21000" cy="7000" r="200" /> 
</g>
<g style="fill:#FFFFFF; fill-opacity:1.0; 
stroke:#FFFFFF; stroke-width:39.3701; stroke-opacity:1; 
stroke-linecap:round; stroke-linejoin:round;">
</g>
<g style="fill:#FFFFFF; fill-opacity:1.0; 
stroke:#FFFFFF; stroke-width:0; stroke-opacity:1; 
stroke-linecap:round; stroke-linejoin:round;">
<circle cx="22000" cy="7000" r="200" /> 
</g>
<g style="fill:#FFFFFF; fill-opacity:1.0; 
stroke:#FFFFFF; stroke-width:39.3701; stroke-opacity:1; 
stroke-linecap:round; stroke-linejoin:round;">
</g>
<g style="fill:#FFFFFF; fill-opacity:1.0; 
stroke:#FFFFFF; stroke-width:0; stroke-opacity:1; 
stroke-linecap:round; stroke-linejoin:round;">
<circle cx="21000" cy="8000" r="200" /> 
</g>
<g style="fill:#FFFFFF; fill-opacity:1.0; 
stroke:#FFFFFF; stroke-width:39.3701; stroke-opacity:1; 
stroke-linecap:round; stroke-linejoin:round;">
</g>
<g style="fill:#FFFFFF; fill-opacity:1.0; 
stroke:#FFFFFF; stroke-width:0; stroke-opacity:1; 
stroke-linecap:round; stroke-linejoin:round;">
<circle cx="22000" cy="8000" r="200" /> 
</g>
<g style="fill:#FFFFFF; fill-opacity:1.0; 
stroke:#FFFFFF; stroke-width:39.3701; stroke-opacity:1; 
stroke-linecap:round; stroke-linejoin:round;">
</g>
<g style="fill:#FFFFFF; fill-opacity:1.0; 
stroke:#FFFFFF; stroke-width:0; stroke-opacity:1; 
stroke-linecap:round; stroke-linejoin:round;">
<circle cx="18500" cy="3000" r="196.85" /> 
</g>
<g style="fill:#FFFFFF; fill-opacity:1.0; 
stroke:#FFFFFF; stroke-width:39.3701; stroke-opacity:1; 
stroke-linecap:round; stroke-linejoin:round;">
</g>
<g style="fill:#FFFFFF; fill-opacity:1.0; 
stroke:#FFFFFF; stroke-width:0; stroke-opacity:1; 
stroke-linecap:round; stroke-linejoin:round;">
<circle cx="18500" cy="2000" r="196.85" /> 
</g>
<g style="fill:#FFFFFF; fill-opacity:1.0; 
stroke:#FFFFFF; stroke-width:39.3701; stroke-opacity:1; 
stroke-linecap:round; stroke-linejoin:round;">
</g>
<g style="fill:#000000; fill-opacity:1.0; 
stroke:#000000; stroke-width:39.3701; stroke-opacity:1; 
stroke-linecap:round; stroke-linejoin:round;">
</g>
<g style="fill:#000000; fill-opacity:1.0; 
stroke:#000000; stroke-width:47.2441; stroke-opacity:1; 
stroke-linecap:round; stroke-linejoin:round;">
</g>
<g style="fill:#000000; fill-opacity:0.0; 
stroke:#000000; stroke-width:47.2441; stroke-opacity:1; 
stroke-linecap:round; stroke-linejoin:round;">
<path d="M8236 6346
L7763 6346
" />
<path d="M7763 5653
L8236 5653
" />
</g>
<g style="fill:#000000; fill-opacity:0.0; 
stroke:#000000; stroke-width:59.0551; stroke-opacity:1; 
stroke-linecap:round; stroke-linejoin:round;">
<path d="M11500 3650
L11500 2350
" />
<path d="M13500 3650
L13500 2350
" />
</g>
<g style="fill:#000000; fill-opacity:0.0; 
stroke:#000000; stroke-width:47.2441; stroke-opacity:1; 
stroke-linecap:round; stroke-linejoin:round;">
<path d="M11500 3651
L13500 3651
" />
<path d="M11500 2351
L13500 2351
" />
</g>
<g style="fill:#000000; fill-opacity:0.0; 
stroke:#000000; stroke-width:59.0551; stroke-opacity:1; 
stroke-linecap:round; stroke-linejoin:round;">
<path d="M11500 5650
L11500 4350
" />
<path d="M13500 5650
L13500 4350
" />
</g>
<g style="fill:#000000; fill-opacity:0.0; 
stroke:#000000; stroke-width:47.2441; stroke-opacity:1; 
stroke-linecap:round; stroke-linejoin:round;">
<path d="M11500 5651
L13500 5651
" />
<path d="M11500 4351
L13500 4351
" />
</g>
<g style="fill:#000000; fill-opacity:0.0; 
stroke:#000000; stroke-width:59.0551; stroke-opacity:1; 
stroke-linecap:round; stroke-linejoin:round;">
<path d="M11500 7650
L11500 6350
" />
<path d="M13500 7650
L13500 6350
" />
</g>
<g style="fill:#000000; fill-opacity:0.0; 
stroke:#000000; stroke-width:47.2441; stroke-opacity:1; 
stroke-linecap:round; stroke-linejoin:round;">
<path d="M11500 7651
L13500 7651
" />
<path d="M11500 6351
L13500 6351
" />
</g>
<g style="fill:#000000; fill-opacity:0.0; 
stroke:#000000; stroke-width:59.0551; stroke-opacity:1; 
stroke-linecap:round; stroke-linejoin:round;">
<path d="M11500 9650
L11500 8350
" />
<path d="M13500 9650
L13500 8350
" />
</g>
<g style="fill:#000000; fill-opacity:0.0; 
stroke:#000000; stroke-width:47.2441; stroke-opacity:1; 
stroke-linecap:round; stroke-linejoin:round;">
<path d="M11500 9651
L13500 9651
" />
<path d="M11500 8351
L13500 8351
" />
<path d="M23389 1901
L23389 10098
" />
<path d="M23389 10098
L19610 10098
" />
<path d="M19610 10098
L19610 1901
" />
<path d="M19610 1901
L23389 1901
" />
</g>
<g style="fill:#000000; fill-opacity:0.0; 
stroke:#000000; stroke-width:59.0551; stroke-opacity:1; 
stroke-linecap:round; stroke-linejoin:round;">
<path d="M17850 1500
L19150 1500
" />
<path d="M17850 3500
L19150 3500
" />
</g>
<g style="fill:#000000; fill-opacity:0.0; 
stroke:#000000; stroke-width:47.2441; stroke-opacity:1; 
stroke-linecap:round; stroke-linejoin:round;">
<path d="M17848 1500
L17848 3500
" />
<path d="M19148 1500
L19148 3500
" />
</g>
<g style="fill:#000000; fill-opacity:0.0; 
stroke:#000000; stroke-width:300; stroke-opacity:1; 
stroke-linecap:round; stroke-linejoin:round;">
<circle cx="16500" cy="6000" r="1414.21" /> 
</g>
<g style="fill:#000000; fill-opacity:0.0; 
stroke:#000000; stroke-width:25; stroke-opacity:1; 
stroke-linecap:round; stroke-linejoin:round;">
<path d="M5816 10045
L5783 9997
" />
<path d="M5759 10045
L5759 9945
L5797 9945
L5807 9950
L5811 9954
L5816 9964
L5816 9978
L5811 9988
L5807 9992
L5797 9997
L5759 9997
" />
<path d="M5859 9992
L5892 9992
" />
<path d="M5907 10045
L5859 10045
L5859 9945
L5907 9945
" />
<path d="M5983 9992
L5950 9992
" />
<path d="M5950 10045
L5950 9945
L5997 9945
" />
<path d="M6050 9945
L6050 9969
" />
<path d="M6026 9959
L6050 9969
L6073 9959
" />
<path d="M6035 9988
L6050 9969
L6064 9988
" />
<path d="M6126 9945
L6126 9969
" />
<path d="M6102 9959
L6126 9969
L6150 9959
" />
<path d="M6111 9988
L6126 9969
L6140 9988
" />
</g>
<g style="fill:#000000; fill-opacity:0.0; 
stroke:#000000; stroke-width:59.0551; stroke-opacity:1; 
stroke-linecap:round; stroke-linejoin:round;">
<path d="M7934 5508
L7803 5321
" />
<path d="M7709 5508
L7709 5115
L7859 5115
L7896 5133
L7915 5152
L7934 5190
L7934 5246
L7915 5283
L7896 5302
L7859 5321
L7709 5321
" />
<path d="M8309 5508
L8084 5508
" />
<path d="M8196 5508
L8196 5115
L8159 5171
L8121 5208
L8084 5227
" />
</g>
<g style="fill:#000000; fill-opacity:0.0; 
stroke:#000000; stroke-width:25; stroke-opacity:1; 
stroke-linecap:round; stroke-linejoin:round;">
<path d="M5816 4045
L5783 3997
" />
<path d="M5759 4045
L5759 3945
L5797 3945
L5807 3950
L5811 3954
L5816 3964
L5816 3978
L5811 3988
L5807 3992
L5797 3997
L5759 3997
" />
<path d="M5859 3992
L5892 3992
" />
<path d="M5907 4045
L5859 4045
L5859 3945
L5907 3945
" />
<path d="M5983 3992
L5950 3992
" />
<path d="M5950 4045
L5950 3945
L5997 3945
" />
<path d="M6050 3945
L6050 3969
" />
<path d="M6026 3959
L6050 3969
L6073 3959
" />
<path d="M6035 3988
L6050 3969
L6064 3988
" />
<path d="M6126 3945
L6126 3969
" />
<path d="M6102 3959
L6126 3969
L6150 3959
" />
<path d="M6111 3988
L6126 3969
L6140 3988
" />
</g>
<g style="fill:#000000; fill-opacity:0.0; 
stroke:#000000; stroke-width:59.0551; stroke-opacity:1; 
stroke-linecap:round; stroke-linejoin:round;">
<path d="M10025 3159
L10081 3178
L10175 3178
L10212 3159
L10231 3140
L10250 3103
L10250 3065
L10231 3028
L10212 3009
L10175 2990
L10100 2971
L10062 2953
L10043 2934
L10025 2896
L10025 2859
L10043 2821
L10062 2803
L10100 2784
L10193 2784
L10250 2803
" />
<path d="M10418 3178
L10418 2915
" />
<path d="M10418 2784
L10400 2803
L10418 2821
L10437 2803
L10418 2784
L10418 2821
" />
<path d="M10550 2915
L10699 2915
" />
<path d="M10606 2784
L10606 3121
L10625 3159
L10662 3178
L10699 3178
" />
<path d="M10981 3159
L10943 3178
L10868 3178
L10831 3159
L10812 3121
L10812 2971
L10831 2934
L10868 2915
L10943 2915
L10981 2934
L10999 2971
L10999 3009
L10812 3046
" />
<path d="M11374 3178
L11149 3178
" />
<path d="M11262 3178
L11262 2784
L11224 2840
L11187 2878
L11149 2896
" />
<path d="M10025 5159
L10081 5178
L10175 5178
L10212 5159
L10231 5140
L10250 5103
L10250 5065
L10231 5028
L10212 5009
L10175 4990
L10100 4971
L10062 4953
L10043 4934
L10025 4896
L10025 4859
L10043 4821
L10062 4803
L10100 4784
L10193 4784
L10250 4803
" />
<path d="M10418 5178
L10418 4915
" />
<path d="M10418 4784
L10400 4803
L10418 4821
L10437 4803
L10418 4784
L10418 4821
" />
<path d="M10550 4915
L10699 4915
" />
<path d="M10606 4784
L10606 5121
L10625 5159
L10662 5178
L10699 5178
" />
<path d="M10981 5159
L10943 5178
L10868 5178
L10831 5159
L10812 5121
L10812 4971
L10831 4934
L10868 4915
L10943 4915
L10981 4934
L10999 4971
L10999 5009
L10812 5046
" />
<path d="M11149 4821
L11168 4803
L11206 4784
L11299 4784
L11337 4803
L11356 4821
L11374 4859
L11374 4896
L11356 4953
L11131 5178
L11374 5178
" />
<path d="M10025 7159
L10081 7178
L10175 7178
L10212 7159
L10231 7140
L10250 7103
L10250 7065
L10231 7028
L10212 7009
L10175 6990
L10100 6971
L10062 6953
L10043 6934
L10025 6896
L10025 6859
L10043 6821
L10062 6803
L10100 6784
L10193 6784
L10250 6803
" />
<path d="M10418 7178
L10418 6915
" />
<path d="M10418 6784
L10400 6803
L10418 6821
L10437 6803
L10418 6784
L10418 6821
" />
<path d="M10550 6915
L10699 6915
" />
<path d="M10606 6784
L10606 7121
L10625 7159
L10662 7178
L10699 7178
" />
<path d="M10981 7159
L10943 7178
L10868 7178
L10831 7159
L10812 7121
L10812 6971
L10831 6934
L10868 6915
L10943 6915
L10981 6934
L10999 6971
L10999 7009
L10812 7046
" />
<path d="M11131 6784
L11374 6784
L11243 6934
L11299 6934
L11337 6953
L11356 6971
L11374 7009
L11374 7103
L11356 7140
L11337 7159
L11299 7178
L11187 7178
L11149 7159
L11131 7140
" />
<path d="M10025 9159
L10081 9178
L10175 9178
L10212 9159
L10231 9140
L10250 9103
L10250 9065
L10231 9028
L10212 9009
L10175 8990
L10100 8971
L10062 8953
L10043 8934
L10025 8896
L10025 8859
L10043 8821
L10062 8803
L10100 8784
L10193 8784
L10250 8803
" />
<path d="M10418 9178
L10418 8915
" />
<path d="M10418 8784
L10400 8803
L10418 8821
L10437 8803
L10418 8784
L10418 8821
" />
<path d="M10550 8915
L10699 8915
" />
<path d="M10606 8784
L10606 9121
L10625 9159
L10662 9178
L10699 9178
" />
<path d="M10981 9159
L10943 9178
L10868 9178
L10831 9159
L10812 9121
L10812 8971
L10831 8934
L10868 8915
L10943 8915
L10981 8934
L10999 8971
L10999 9009
L10812 9046
" />
<path d="M11337 8915
L11337 9178
" />
<path d="M11243 8765
L11149 9046
L11393 9046
" />
<path d="M20784 3131
L21065 3131
L21121 3149
L21159 3187
L21178 3243
L21178 3281
" />
<path d="M21178 2737
L21178 2962
" />
<path d="M21178 2850
L20784 2850
L20840 2887
L20878 2925
L20896 2962
" />
</g>
<g style="fill:#000000; fill-opacity:0.0; 
stroke:#000000; stroke-width:47.2441; stroke-opacity:1; 
stroke-linecap:round; stroke-linejoin:round;">
<path d="M20500 3895
L20500 4120
" />
<path d="M20500 4007
L20107 4007
L20163 4045
L20200 4082
L20219 4120
" />
</g>
<g style="fill:#000000; fill-opacity:0.0; 
stroke:#000000; stroke-width:59.0551; stroke-opacity:1; 
stroke-linecap:round; stroke-linejoin:round;">
<path d="M15553 1659
L15609 1678
L15703 1678
L15740 1659
L15759 1640
L15778 1603
L15778 1565
L15759 1528
L15740 1509
L15703 1490
L15628 1471
L15590 1453
L15571 1434
L15553 1396
L15553 1359
L15571 1321
L15590 1303
L15628 1284
L15721 1284
L15778 1303
" />
<path d="M15946 1415
L15946 1809
" />
<path d="M15946 1434
L15984 1415
L16059 1415
L16096 1434
L16115 1453
L16134 1490
L16134 1603
L16115 1640
L16096 1659
L16059 1678
L15984 1678
L15946 1659
" />
<path d="M16471 1678
L16471 1471
L16453 1434
L16415 1415
L16340 1415
L16303 1434
" />
<path d="M16471 1659
L16434 1678
L16340 1678
L16303 1659
L16284 1621
L16284 1584
L16303 1546
L16340 1528
L16434 1528
L16471 1509
" />
<path d="M16659 1678
L16659 1415
" />
<path d="M16659 1490
L16678 1453
L16696 1434
L16734 1415
L16771 1415
" />
<path d="M17053 1659
L17015 1678
L16940 1678
L16903 1659
L16884 1621
L16884 1471
L16903 1434
L16940 1415
L17015 1415
L17053 1434
L17071 1471
L17071 1509
L16884 1546
" />
<path d="M17446 1678
L17221 1678
" />
<path d="M17334 1678
L17334 1284
L17296 1340
L17259 1378
L17221 1396
" />
<path d="M15684 10678
L15553 10490
" />
<path d="M15459 10678
L15459 10284
L15609 10284
L15646 10303
L15665 10321
L15684 10359
L15684 10415
L15665 10453
L15646 10471
L15609 10490
L15459 10490
" />
<path d="M16003 10659
L15965 10678
L15890 10678
L15853 10659
L15834 10621
L15834 10471
L15853 10434
L15890 10415
L15965 10415
L16003 10434
L16021 10471
L16021 10509
L15834 10546
" />
<path d="M16153 10415
L16246 10678
L16340 10415
" />
<path d="M16996 10678
L16771 10678
" />
<path d="M16884 10678
L16884 10284
L16846 10340
L16809 10378
L16771 10396
" />
<path d="M17165 10640
L17184 10659
L17165 10678
L17146 10659
L17165 10640
L17165 10678
" />
<path d="M17428 10284
L17465 10284
L17503 10303
L17521 10321
L17540 10359
L17559 10434
L17559 10528
L17540 10603
L17521 10640
L17503 10659
L17465 10678
L17428 10678
L17390 10659
L17371 10640
L17353 10603
L17334 10528
L17334 10434
L17353 10359
L17371 10321
L17390 10303
L17428 10284
" />
<path d="M13275 10178
L13275 9784
L13500 10178
L13500 9784
" />
<path d="M13762 9784
L13837 9784
L13875 9803
L13912 9840
L13931 9915
L13931 10046
L13912 10121
L13875 10159
L13837 10178
L13762 10178
L13725 10159
L13687 10121
L13669 10046
L13669 9915
L13687 9840
L13725 9803
L13762 9784
" />
<path d="M14081 10065
L14269 10065
" />
<path d="M14044 10178
L14175 9784
L14306 10178
" />
<path d="M14643 10178
L14419 10178
" />
<path d="M14531 10178
L14531 9784
L14494 9840
L14456 9878
L14419 9896
" />
<path d="M14793 9821
L14812 9803
L14850 9784
L14943 9784
L14981 9803
L15000 9821
L15018 9859
L15018 9896
L15000 9953
L14775 10178
L15018 10178
" />
<path d="M15393 10178
L15168 10178
" />
<path d="M15281 10178
L15281 9784
L15243 9840
L15206 9878
L15168 9896
" />
<path d="M15731 9915
L15731 10178
" />
<path d="M15637 9765
L15543 10046
L15787 10046
" />
<path d="M16425 10178
L16237 10178
L16237 9784
" />
<path d="M16556 9971
L16687 9971
" />
<path d="M16743 10178
L16556 10178
L16556 9784
L16743 9784
" />
<path d="M16912 10178
L16912 9784
L17006 9784
L17062 9803
L17099 9840
L17118 9878
L17137 9953
L17137 10009
L17118 10084
L17099 10121
L17062 10159
L17006 10178
L16912 10178
" />
<path d="M17737 9971
L17793 9990
L17812 10009
L17831 10046
L17831 10103
L17812 10140
L17793 10159
L17756 10178
L17606 10178
L17606 9784
L17737 9784
L17774 9803
L17793 9821
L17812 9859
L17812 9896
L17793 9934
L17774 9953
L17737 9971
L17606 9971
" />
<path d="M18074 9784
L18149 9784
L18187 9803
L18224 9840
L18243 9915
L18243 10046
L18224 10121
L18187 10159
L18149 10178
L18074 10178
L18037 10159
L17999 10121
L17981 10046
L17981 9915
L17999 9840
L18037 9803
L18074 9784
" />
<path d="M18393 10065
L18580 10065
" />
<path d="M18356 10178
L18487 9784
L18618 10178
" />
<path d="M18974 10178
L18843 9990
" />
<path d="M18749 10178
L18749 9784
L18899 9784
L18937 9803
L18955 9821
L18974 9859
L18974 9915
L18955 9953
L18937 9971
L18899 9990
L18749 9990
" />
<path d="M19143 10178
L19143 9784
L19237 9784
L19293 9803
L19330 9840
L19349 9878
L19368 9953
L19368 10009
L19349 10084
L19330 10121
L19293 10159
L19237 10178
L19143 10178
" />
<path d="M19518 10159
L19574 10178
L19668 10178
L19705 10159
L19724 10140
L19743 10103
L19743 10065
L19724 10028
L19705 10009
L19668 9990
L19593 9971
L19555 9953
L19537 9934
L19518 9896
L19518 9859
L19537 9821
L19555 9803
L19593 9784
L19687 9784
L19743 9803
" />
</g>
<g style="fill:#000000; fill-opacity:0.0; 
stroke:#000000; stroke-width:250; stroke-opacity:1; 
stroke-linecap:round; stroke-linejoin:round;">
<path d="M15880 5452
L16071 5452
L16166 5500
L16261 5595
L16309 5785
L16309 6119
L16261 6309
L16166 6404
L16071 6452
L15880 6452
L15785 6404
L15690 6309
L15642 6119
L15642 5785
L15690 5595
L15785 5500
L15880 5452
" />
<path d="M16738 6452
L16738 5452
L17309 6452
L17309 5452
" />
</g>
<g style="fill:#000000; fill-opacity:0.0; 
stroke:#000000; stroke-width:59.0551; stroke-opacity:1; 
stroke-linecap:round; stroke-linejoin:round;">
<path d="M1000 11000
L1000 1000
" />
<path d="M24000 11000
L1000 11000
" />
<path d="M24000 1000
L24000 11000
" />
<path d="M1000 1000
L24000 1000
" />
</g> 
</svg>
